<svg xmlns="http://www.w3.org/2000/svg" xmlns:xlink="http://www.w3.org/1999/xlink" version="1.1" width="256" height="256" viewBox="0 0 256 256" xml:space="preserve">
<g style="stroke: none; stroke-width: 0; stroke-dasharray: none; stroke-linecap: butt; stroke-linejoin: miter; stroke-miterlimit: 10; fill: none; fill-rule: nonzero; opacity: 1;" transform="translate(1.4065934065934016 1.4065934065934016) scale(2.81 2.81)">
	<path d="M 40.513 41.614 c 2.452 2.125 2.458 5.665 0.005 7.79 c -4.107 3.558 -9.02 7.211 -9.777 17.146 c -0.047 0.611 0.451 1.133 1.064 1.133 l 27.292 0 c 0.613 0 1.111 -0.522 1.064 -1.133 c -0.757 -9.934 -5.67 -13.587 -9.777 -17.146 c -2.453 -2.126 -2.447 -5.666 0.006 -7.792 c 4.24 -3.673 9.337 -7.45 9.831 -18.138 c 0.028 -0.601 -0.465 -1.107 -1.067 -1.107 l -27.407 0 c -0.602 0 -1.095 0.506 -1.067 1.107 C 31.175 34.164 36.273 37.94 40.513 41.614 z" style="stroke: none; stroke-width: 1; stroke-dasharray: none; stroke-linecap: butt; stroke-linejoin: miter; stroke-miterlimit: 10; fill: rgb(32,186,0); fill-rule: nonzero; opacity: 1;" transform=" matrix(1 0 0 1 0 0) " stroke-linecap="round"/>
	<path d="M 88.711 60.078 l -7.712 -2.066 c -2.998 8.042 -8.643 14.735 -16.171 19.08 c -8.575 4.947 -18.557 6.261 -28.113 3.699 c -9.544 -2.557 -17.528 -8.69 -22.481 -17.268 c -4.953 -8.579 -6.272 -18.56 -3.715 -28.104 c 5.286 -19.73 25.638 -31.48 45.374 -26.197 c 5.004 1.341 9.596 3.678 13.647 6.945 l 3.104 2.502 l -5.721 5.721 h 16.556 V 7.835 l -5.262 5.262 l -2.52 -2.177 c -5.151 -4.45 -11.121 -7.606 -17.744 -9.382 C 54.067 0.497 50.161 0 46.318 0 C 26.449 0 8.218 13.278 2.836 33.361 c -3.106 11.59 -1.502 23.714 4.515 34.137 s 15.715 17.872 27.305 20.978 c 11.498 3.078 23.845 1.453 34.148 -4.495 C 78.174 78.57 85.143 70.17 88.711 60.078 z" style="stroke: none; stroke-width: 1; stroke-dasharray: none; stroke-linecap: butt; stroke-linejoin: miter; stroke-miterlimit: 10; fill: rgb(32,186,0); fill-rule: nonzero; opacity: 1;" transform=" matrix(1 0 0 1 0 0) " stroke-linecap="round"/>
</g>
</svg>