<svg xmlns="http://www.w3.org/2000/svg" xmlns:xlink="http://www.w3.org/1999/xlink" version="1.1" width="256" height="256" viewBox="0 0 256 256" xml:space="preserve">
<g style="stroke: none; stroke-width: 0; stroke-dasharray: none; stroke-linecap: butt; stroke-linejoin: miter; stroke-miterlimit: 10; fill: none; fill-rule: nonzero; opacity: 1;" transform="translate(1.4065934065934016 1.4065934065934016) scale(2.81 2.81)">
	<path d="M 44.992 89.995 c -3.844 0.001 -7.747 -0.496 -11.632 -1.538 c -11.606 -3.11 -21.306 -10.553 -27.314 -20.958 C 0.038 57.093 -1.558 44.971 1.552 33.365 c 3.11 -11.606 10.553 -21.306 20.959 -27.314 C 32.917 0.043 45.04 -1.552 56.645 1.557 c 8.706 2.333 16.419 7.15 22.306 13.933 c 1.086 1.251 0.952 3.146 -0.299 4.231 c -1.252 1.085 -3.145 0.952 -4.232 -0.299 c -5.099 -5.874 -11.782 -10.048 -19.328 -12.07 C 45.036 4.658 34.53 6.04 25.511 11.246 c -9.018 5.207 -15.468 13.613 -18.163 23.671 c -2.695 10.058 -1.312 20.564 3.894 29.582 c 5.207 9.017 13.613 15.468 23.671 18.163 c 20.766 5.56 42.182 -6.803 47.745 -27.565 c 1.46 -5.448 1.73 -11.008 0.804 -16.525 c -0.274 -1.634 0.828 -3.18 2.462 -3.455 c 1.633 -0.276 3.181 0.828 3.456 2.462 c 1.069 6.37 0.758 12.787 -0.927 19.071 C 83.074 76.723 64.851 89.994 44.992 89.995 z" style="stroke: none; stroke-width: 1; stroke-dasharray: none; stroke-linecap: butt; stroke-linejoin: miter; stroke-miterlimit: 10; fill: rgb(0,0,0); fill-rule: nonzero; opacity: 1;" transform=" matrix(1 0 0 1 0 0) " stroke-linecap="round"/>
	<path d="M 76.686 20.455 H 65.156 c -1.657 0 -3 -1.343 -3 -3 s 1.343 -3 3 -3 h 8.531 V 5.925 c 0 -1.656 1.343 -3 3 -3 s 3 1.343 3 3 v 11.531 C 79.686 19.112 78.343 20.455 76.686 20.455 z" style="stroke: none; stroke-width: 1; stroke-dasharray: none; stroke-linecap: butt; stroke-linejoin: miter; stroke-miterlimit: 10; fill: rgb(0,0,0); fill-rule: nonzero; opacity: 1;" transform=" matrix(1 0 0 1 0 0) " stroke-linecap="round"/>
</g>
</svg>